<svg width="20" height="21" viewBox="0 0 20 21" fill="none" xmlns="http://www.w3.org/2000/svg">
<path d="M10.0001 12.9831C9.81424 12.9816 9.63574 12.9102 9.50011 12.7831L6.21011 9.48305C6.07314 9.3528 5.99561 9.17207 5.99561 8.98305C5.99561 8.79404 6.07314 8.61331 6.21011 8.48305C6.34036 8.34609 6.52109 8.26855 6.71011 8.26855C6.89912 8.26855 7.07985 8.34609 7.21011 8.48305L10.0001 11.2831L12.8001 8.49305C12.9304 8.35609 13.1111 8.27855 13.3001 8.27855C13.4891 8.27855 13.6699 8.35609 13.8001 8.49305C13.9371 8.62331 14.0146 8.80404 14.0146 8.99305C14.0146 9.18207 13.9371 9.3628 13.8001 9.49305L10.5001 12.7831C10.3645 12.9102 10.186 12.9816 10.0001 12.9831Z" fill="#264966"/>
</svg>
