<svg width="20" height="20" viewBox="0 0 20 16" fill="none" xmlns="http://www.w3.org/2000/svg">
    <path
        d="M4.21249 0.704862C4.15761 0.642992 4.09099 0.592631 4.01649 0.556698C3.942 0.520765 3.86111 0.499974 3.77853 0.495531C3.69594 0.491088 3.61329 0.503081 3.53537 0.530815C3.45746 0.558548 3.38582 0.601471 3.32461 0.657096C3.2634 0.71272 3.21384 0.779939 3.17881 0.854858C3.14377 0.929776 3.12395 1.0109 3.1205 1.09354C3.11704 1.17617 3.13003 1.25867 3.15869 1.33625C3.18736 1.41383 3.23114 1.48495 3.28749 1.54549L4.79062 3.19939C1.95312 4.9408 0.732805 7.62517 0.678899 7.74705C0.643362 7.82698 0.625 7.91348 0.625 8.00096C0.625 8.08843 0.643362 8.17493 0.678899 8.25486C0.706243 8.31658 1.36796 9.78377 2.83905 11.2549C4.79921 13.2142 7.27499 14.2502 9.99999 14.2502C11.4005 14.2582 12.7868 13.9698 14.068 13.4041L15.7867 15.2955C15.8416 15.3574 15.9082 15.4077 15.9827 15.4437C16.0572 15.4796 16.1381 15.5004 16.2207 15.5048C16.3033 15.5093 16.3859 15.4973 16.4638 15.4695C16.5417 15.4418 16.6134 15.3989 16.6746 15.3433C16.7358 15.2876 16.7854 15.2204 16.8204 15.1455C16.8554 15.0706 16.8753 14.9894 16.8787 14.9068C16.8822 14.8242 16.8692 14.7417 16.8405 14.6641C16.8118 14.5865 16.7681 14.5154 16.7117 14.4549L4.21249 0.704862ZM7.91015 6.62986L11.1656 10.2119C10.6754 10.4698 10.1134 10.5576 9.56783 10.4615C9.02229 10.3653 8.52413 10.0907 8.15157 9.68081C7.77901 9.27087 7.55314 8.74881 7.50945 8.19659C7.46575 7.64438 7.6067 7.09329 7.91015 6.62986ZM9.99999 13.0002C7.5953 13.0002 5.49452 12.126 3.75546 10.4025C3.04164 9.69313 2.43454 8.88392 1.95312 8.00017C2.31952 7.31346 3.48905 5.39158 5.65234 4.14236L7.05859 5.68533C6.51416 6.3826 6.23377 7.24989 6.26697 8.1339C6.30017 9.01792 6.64483 9.86173 7.24002 10.5162C7.83521 11.1707 8.64261 11.5936 9.51952 11.7104C10.3964 11.8271 11.2864 11.6301 12.032 11.1541L13.1828 12.4197C12.1672 12.8094 11.0878 13.0062 9.99999 13.0002ZM10.4687 5.54471C10.3059 5.51363 10.162 5.41912 10.0689 5.28199C9.97568 5.14485 9.94079 4.97632 9.97187 4.81346C10.0029 4.6506 10.0975 4.50675 10.2346 4.41357C10.3717 4.32039 10.5403 4.2855 10.7031 4.31658C11.4997 4.47101 12.225 4.87881 12.7708 5.47915C13.3167 6.07949 13.6539 6.84021 13.732 7.64783C13.7475 7.81286 13.6967 7.97727 13.5909 8.10488C13.4851 8.23249 13.333 8.31286 13.168 8.3283C13.1484 8.32945 13.1289 8.32945 13.1094 8.3283C12.9532 8.32897 12.8024 8.27111 12.6867 8.16613C12.571 8.06115 12.4988 7.91666 12.4844 7.76111C12.4318 7.22392 12.2072 6.71805 11.844 6.31872C11.4809 5.9194 10.9985 5.64794 10.4687 5.54471ZM19.3187 8.25486C19.2859 8.3283 18.4945 10.0806 16.7125 11.6767C16.6516 11.733 16.5801 11.7766 16.5022 11.805C16.4243 11.8334 16.3415 11.846 16.2587 11.842C16.1759 11.8381 16.0947 11.8178 16.0198 11.7821C15.9449 11.7465 15.8779 11.6964 15.8226 11.6346C15.7673 11.5728 15.7249 11.5006 15.6977 11.4223C15.6706 11.344 15.6593 11.261 15.6645 11.1782C15.6698 11.0955 15.6914 11.0146 15.7282 10.9403C15.765 10.866 15.8162 10.7998 15.8789 10.7455C16.7532 9.96003 17.4876 9.03171 18.0508 8.00017C17.5683 7.11562 16.9599 6.30586 16.2445 5.59627C14.5055 3.87439 12.4047 3.00017 9.99999 3.00017C9.49332 2.99956 8.98745 3.04058 8.48749 3.12283C8.40619 3.13721 8.32284 3.13534 8.24227 3.11732C8.1617 3.0993 8.08549 3.0655 8.01805 3.01786C7.95062 2.97023 7.89329 2.9097 7.84938 2.83979C7.80547 2.76987 7.77584 2.69194 7.76222 2.61051C7.7486 2.52908 7.75124 2.44575 7.77 2.36535C7.78877 2.28495 7.82327 2.20906 7.87153 2.14207C7.91979 2.07507 7.98085 2.01831 8.05117 1.97505C8.12149 1.93179 8.19969 1.90289 8.28124 1.89002C8.84934 1.79622 9.4242 1.74944 9.99999 1.75017C12.725 1.75017 15.2008 2.78611 17.1609 4.74627C18.632 6.21736 19.2937 7.68533 19.3211 7.74705C19.3566 7.82698 19.375 7.91348 19.375 8.00096C19.375 8.08843 19.3566 8.17493 19.3211 8.25486H19.3187Z"
        fill="black" />
</svg>