<svg width="16" height="16" viewBox="0 0 16 16" fill="none" xmlns="http://www.w3.org/2000/svg">
    <path fill-rule="evenodd" clip-rule="evenodd"
        d="M8 0C3.58172 0 0 3.58172 0 8C0 12.4183 3.58172 16 8 16C12.4183 16 16 12.4183 16 8C16 5.87827 15.1571 3.84344 13.6569 2.34315C12.1566 0.842855 10.1217 0 8 0ZM7.99999 14.6C4.35491 14.6 1.39999 11.6451 1.39999 8C1.39999 4.35493 4.35491 1.40001 7.99999 1.40001C11.6451 1.40001 14.6 4.35493 14.6 8C14.5945 11.6428 11.6428 14.5945 7.99999 14.6ZM12.0045 5.83C12.0045 5.64099 11.927 5.46025 11.79 5.33C11.5144 5.06199 11.0756 5.06199 10.8 5.33L7 9.17999L5.21 7.41C5.03137 7.23136 4.771 7.1616 4.52699 7.22698C4.28297 7.29237 4.09237 7.48297 4.02699 7.72698C3.9616 7.971 4.03137 8.23136 4.21 8.41L6.45 10.67C6.7268 10.9446 7.1732 10.9446 7.45 10.67L11.79 6.33C11.927 6.19974 12.0045 6.01901 12.0045 5.83Z"
        fill="#00A886" />
</svg>