<svg width="24" height="24" viewBox="0 0 24 24" fill="none" xmlns="http://www.w3.org/2000/svg">
<path d="M10.7939 15.4461C10.5699 15.4493 10.3539 15.3629 10.1939 15.2061L7.44588 12.4941C7.28152 12.3378 7.18848 12.1209 7.18848 11.8941C7.18848 11.6673 7.28152 11.4504 7.44588 11.2941C7.77803 10.9647 8.31372 10.9647 8.64588 11.2941L10.7939 13.4181L15.3539 8.81013C15.5102 8.64578 15.7271 8.55273 15.9539 8.55273C16.1807 8.55273 16.3976 8.64578 16.5539 8.81013C16.7182 8.96644 16.8113 9.18332 16.8113 9.41013C16.8113 9.63695 16.7182 9.85383 16.5539 10.0101L11.3339 15.2061C11.1889 15.3489 10.997 15.4342 10.7939 15.4461Z" fill="#ED7157"/>
</svg>
