<svg width="15" height="17" viewBox="0 0 15 17" fill="none" xmlns="http://www.w3.org/2000/svg">
<path d="M10.75 2.5V3H11.25H14.375C14.4082 3 14.4399 3.01317 14.4634 3.03661C14.4868 3.06005 14.5 3.09185 14.5 3.125C14.5 3.15815 14.4868 3.18995 14.4634 3.21339C14.4399 3.23683 14.4082 3.25 14.375 3.25H13.75H13.25V3.75V15C13.25 15.1989 13.171 15.3897 13.0303 15.5303C12.8897 15.671 12.6989 15.75 12.5 15.75H2.5C2.30109 15.75 2.11032 15.671 1.96967 15.5303C1.82902 15.3897 1.75 15.1989 1.75 15V3.75V3.25H1.25H0.625C0.591848 3.25 0.560054 3.23683 0.536612 3.21339C0.513169 3.18995 0.5 3.15815 0.5 3.125C0.5 3.09185 0.513169 3.06005 0.536612 3.03661C0.560054 3.01317 0.591848 3 0.625 3H3.75H4.25V2.5V1.875C4.25 1.51033 4.39487 1.16059 4.65273 0.902728C4.91059 0.644866 5.26033 0.5 5.625 0.5H9.375C9.73967 0.5 10.0894 0.644866 10.3473 0.902728C10.6051 1.16059 10.75 1.51033 10.75 1.875V2.5ZM10 3H10.5V2.5V1.875C10.5 1.57663 10.3815 1.29048 10.1705 1.0795C9.95952 0.868526 9.67337 0.75 9.375 0.75H5.625C5.32663 0.75 5.04048 0.868527 4.8295 1.0795C4.61853 1.29048 4.5 1.57663 4.5 1.875V2.5V3H5H10ZM12.5 15.5H13V15V3.75V3.25H12.5H2.5H2V3.75V15V15.5H2.5H12.5ZM5.75 6.875V11.875C5.75 11.9082 5.73683 11.9399 5.71339 11.9634C5.68995 11.9868 5.65815 12 5.625 12C5.59185 12 5.56005 11.9868 5.53661 11.9634C5.51317 11.9399 5.5 11.9082 5.5 11.875V6.875C5.5 6.84185 5.51317 6.81005 5.53661 6.78661C5.56005 6.76317 5.59185 6.75 5.625 6.75C5.65815 6.75 5.68995 6.76317 5.71339 6.78661C5.73683 6.81005 5.75 6.84185 5.75 6.875ZM9.5 6.875V11.875C9.5 11.9082 9.48683 11.9399 9.46339 11.9634C9.43995 11.9868 9.40815 12 9.375 12C9.34185 12 9.31005 11.9868 9.28661 11.9634C9.26317 11.9399 9.25 11.9082 9.25 11.875V6.875C9.25 6.84185 9.26317 6.81005 9.28661 6.78661C9.31005 6.76317 9.34185 6.75 9.375 6.75C9.40815 6.75 9.43995 6.76317 9.46339 6.78661C9.48683 6.81005 9.5 6.84185 9.5 6.875Z" fill="#264966" stroke="black"/>
</svg>
