<svg viewBox="0 0 526 291" fill="none" xmlns="http://www.w3.org/2000/svg">
<path d="M470.621 59.4646C476.019 72.8289 474.807 88.2195 467.835 104.69C460.86 121.165 448.146 138.65 430.672 156.102C395.727 191.003 341.887 225.63 277.429 251.663C212.97 277.696 150.184 290.17 100.802 289.325C76.1095 288.903 54.8191 285.152 38.3589 278.141C21.9038 271.132 10.3439 260.9 4.94653 247.536C-0.45087 234.171 0.760563 218.781 7.73324 202.31C14.7081 185.835 27.422 168.35 44.8961 150.898C79.8413 115.997 133.68 81.3699 198.139 55.3371C262.598 29.3043 325.384 16.8305 374.765 17.6747C399.458 18.0968 420.749 21.8481 437.209 28.859C453.664 35.8676 465.224 46.1003 470.621 59.4646Z" stroke="url(#paint0_linear_1_21019)" stroke-width="2"/>
<g clip-path="url(#clip0_1_21019)">
<path d="M421.043 4.99951H421.033C410.006 4.99951 401.038 13.9695 401.038 24.9995C401.038 29.3745 402.448 33.4295 404.846 36.722L402.353 44.152L410.041 41.6945C413.203 43.7895 416.976 44.9995 421.043 44.9995C432.071 44.9995 441.038 36.027 441.038 24.9995C441.038 13.972 432.071 4.99951 421.043 4.99951Z" fill="#4CAF50"/>
<path d="M432.204 32.7038C431.733 34.0046 429.86 35.0835 428.367 35.3986C427.345 35.611 426.011 35.7804 421.518 33.9617C415.772 31.6369 412.071 25.9347 411.783 25.5648C411.506 25.1948 409.46 22.5454 409.46 19.8053C409.46 17.0653 410.885 15.731 411.46 15.1582C411.932 14.688 412.711 14.4731 413.459 14.4731C413.701 14.4731 413.919 14.4851 414.114 14.4946C414.689 14.5185 414.977 14.5519 415.356 15.4374C415.828 16.5473 416.977 19.2874 417.113 19.569C417.253 19.8507 417.392 20.2326 417.197 20.6025C417.013 20.9844 416.852 21.1539 416.564 21.4785C416.275 21.8031 416.001 22.0514 415.713 22.3998C415.449 22.703 415.151 23.0276 415.483 23.5885C415.816 24.1375 416.964 25.9682 418.656 27.4384C420.839 29.336 422.608 29.9422 423.241 30.2C423.713 30.391 424.275 30.3456 424.62 29.9876C425.057 29.5269 425.598 28.7631 426.148 28.0113C426.539 27.4719 427.032 27.405 427.551 27.596C428.078 27.775 430.872 29.1236 431.447 29.4028C432.021 29.6845 432.4 29.8181 432.539 30.0544C432.676 30.2907 432.676 31.4006 432.204 32.7038Z" fill="#FAFAFA"/>
</g>
<path d="M140.037 53.8008C130.346 53.8008 121.845 58.8733 117.027 66.5032C118.677 67.6939 120.696 68.4042 122.886 68.4042H142.47C152.794 68.4042 161.886 73.6652 167.22 81.6506C167.226 81.4336 167.237 81.2184 167.237 81.0008C167.237 65.9785 155.06 53.8008 140.037 53.8008Z" fill="#7360F2"/>
<path d="M167.24 80.9999C167.24 80.2703 167.202 79.5498 167.146 78.8342C161.801 70.5642 152.745 66.4237 142.472 66.4237H122.889C120.979 66.4237 119.201 66.1251 117.682 65.5146C114.887 69.5433 113.148 74.3595 112.878 79.5668C118.332 86.2924 126.656 90.5961 135.989 90.5961H136.439C141.902 90.5961 144.358 92.9788 144.496 98.4085C144.498 98.3221 144.509 98.2381 144.509 98.151C144.509 103.239 142.384 107.432 137.756 108.098C138.51 108.16 139.27 108.2 140.04 108.2C155.062 108.2 167.24 96.0222 167.24 80.9999Z" fill="#6E5DE3"/>
<path d="M137.785 108.098C142.613 107.45 146.349 103.382 146.475 98.4065C146.338 92.9768 141.902 88.6145 136.439 88.6145H135.99C126.744 88.6145 118.493 84.3882 113.037 77.772C112.911 78.831 112.839 79.9063 112.839 80.9985C112.839 95.2604 123.818 106.951 137.785 108.098Z" fill="#6756D4"/>
<path d="M151.133 68.8375C150.381 68.1442 147.347 65.941 140.586 65.9114C140.586 65.9114 132.614 65.4302 128.728 68.9953C126.565 71.1592 125.804 74.3253 125.724 78.2505C125.644 82.1758 125.54 89.5319 132.631 91.5265H132.637L132.633 94.5699C132.633 94.5699 132.588 95.8018 133.399 96.0532C134.381 96.3579 134.957 95.4216 135.893 94.4115C136.408 93.8573 137.118 93.0431 137.653 92.4211C142.502 92.8291 146.233 91.8965 146.656 91.7586C147.635 91.4413 153.176 90.7311 154.076 83.3756C155.007 75.7947 153.627 70.999 151.133 68.8375ZM147.057 85.311C147.057 85.3141 147.055 85.3195 147.055 85.3225C146.742 85.8641 146.346 86.3519 145.88 86.7683C145.875 86.7708 145.875 86.7738 145.87 86.7762C145.465 87.1141 145.068 87.3063 144.677 87.3528C144.62 87.3631 144.561 87.3667 144.503 87.3637C144.331 87.3655 144.16 87.3389 143.996 87.2857L143.983 87.267C143.382 87.0972 142.378 86.6728 140.705 85.7505C139.738 85.2228 138.817 84.6147 137.952 83.9317C137.518 83.5896 137.105 83.2227 136.713 82.8334L136.671 82.7917L136.63 82.75L136.588 82.7083C136.574 82.695 136.56 82.6805 136.546 82.6666C136.157 82.2749 135.79 81.8615 135.448 81.4281C134.765 80.5631 134.156 79.6425 133.629 78.6748C132.707 77.0023 132.283 75.999 132.113 75.3969L132.094 75.3842C132.041 75.2204 132.015 75.0494 132.017 74.8771C132.014 74.8191 132.017 74.7605 132.027 74.703C132.076 74.3132 132.268 73.9154 132.604 73.5099C132.607 73.505 132.61 73.505 132.612 73.4996C133.028 73.0336 133.517 72.6376 134.058 72.3257C134.06 72.3257 134.066 72.3233 134.069 72.3233C134.614 72.0398 135.129 72.136 135.481 72.55C135.483 72.5524 136.211 73.427 136.524 73.8538C136.845 74.3065 137.145 74.7744 137.419 75.2573C137.778 75.8998 137.553 76.5581 137.201 76.8295L136.491 77.3934C136.133 77.6829 136.181 78.2203 136.181 78.2203C136.181 78.2203 137.232 82.1993 141.16 83.2021C141.16 83.2021 141.697 83.2475 141.987 82.8908L142.551 82.1812C142.823 81.8294 143.48 81.6046 144.123 81.963C144.605 82.2374 145.073 82.5366 145.525 82.8582C145.951 83.1719 146.825 83.9015 146.828 83.9015C147.244 84.2502 147.34 84.7664 147.057 85.311ZM143.807 75.4936C143.012 74.6257 141.922 74.1524 140.476 74.0466C140.266 74.0309 140.108 73.8477 140.123 73.6374C140.139 73.427 140.323 73.2681 140.533 73.2844C142.16 73.4035 143.451 73.9735 144.372 74.9781C145.294 75.9863 145.746 77.2538 145.713 78.7456C145.709 78.9535 145.539 79.1197 145.331 79.1197C145.329 79.1197 145.326 79.1197 145.323 79.1197C145.112 79.1149 144.944 78.9402 144.949 78.7292C144.977 77.4212 144.604 76.3634 143.807 75.4936ZM143.751 78.0601C143.762 78.2711 143.599 78.4506 143.388 78.4609C143.381 78.4615 143.375 78.4615 143.369 78.4615C143.166 78.4615 142.998 78.3025 142.987 78.0982C142.923 76.7992 142.312 76.1634 141.065 76.0987C140.854 76.0878 140.692 75.9077 140.702 75.6973C140.713 75.4864 140.892 75.3238 141.104 75.3353C142.752 75.4211 143.667 76.3628 143.751 78.0601ZM147.342 79.9043C147.341 79.9043 147.34 79.9043 147.339 79.9043C147.13 79.9043 146.958 79.735 146.957 79.5247C146.94 77.2181 146.248 75.3824 144.9 74.0684C143.549 72.7519 141.843 72.0773 139.828 72.0634C139.617 72.0622 139.447 71.8893 139.449 71.6784C139.45 71.468 139.621 71.2988 139.831 71.2988C139.832 71.2988 139.833 71.2988 139.833 71.2988C142.053 71.3145 143.937 72.0616 145.433 73.5207C146.932 74.9823 147.702 77.0005 147.721 79.5186C147.722 79.7302 147.553 79.9025 147.342 79.9043Z" fill="white"/>
<rect x="173" y="75" width="49" height="24" rx="12" fill="#6E5DE3"/>
<path d="M183.24 91L180.422 82.5449H182.408L184.277 89.0312H184.383L186.246 82.5449H188.238L185.42 91H183.24ZM190.389 83.5586C189.861 83.5586 189.422 83.1367 189.422 82.6094C189.422 82.0762 189.861 81.6543 190.389 81.6543C190.916 81.6543 191.35 82.0762 191.35 82.6094C191.35 83.1367 190.916 83.5586 190.389 83.5586ZM189.527 91V84.5488H191.238V91H189.527ZM196.77 91.0996C195.855 91.0996 195.17 90.6953 194.836 89.998H194.73V91H193.02V82.082H194.73V85.5801H194.836C195.164 84.877 195.885 84.4434 196.77 84.4434C198.404 84.4434 199.389 85.6914 199.389 87.7656V87.7773C199.389 89.8398 198.381 91.0996 196.77 91.0996ZM196.184 89.6816C197.092 89.6816 197.648 88.9668 197.648 87.7773V87.7656C197.648 86.5879 197.086 85.8613 196.184 85.8613C195.287 85.8613 194.713 86.5879 194.713 87.7715V87.7832C194.713 88.9668 195.281 89.6816 196.184 89.6816ZM203.613 91.1348C201.65 91.1348 200.461 89.8516 200.461 87.7832V87.7773C200.461 85.7266 201.662 84.4082 203.543 84.4082C205.424 84.4082 206.596 85.6973 206.596 87.6484V88.1816H202.154C202.172 89.2422 202.74 89.8574 203.648 89.8574C204.398 89.8574 204.814 89.459 204.932 89.2129L204.949 89.1777H206.543L206.531 89.2363C206.332 90.0449 205.5 91.1348 203.613 91.1348ZM203.572 85.6914C202.828 85.6914 202.277 86.1953 202.172 87.1094H204.955C204.85 86.1719 204.316 85.6914 203.572 85.6914ZM207.996 91V84.5488H209.707V85.5508H209.812C210.018 84.8535 210.604 84.4434 211.441 84.4434C211.67 84.4434 211.91 84.4785 212.08 84.5254V86.0195C211.822 85.9609 211.559 85.9199 211.295 85.9199C210.322 85.9199 209.707 86.4766 209.707 87.3906V91H207.996Z" fill="#FAFAFA"/>
<rect x="446" y="7" width="80" height="24" rx="12" fill="#4CAF50"/>
<path d="M455.754 23L453.516 14.5449H455.355L456.674 20.5859H456.768L458.309 14.5449H459.803L461.373 20.5859H461.467L462.773 14.5449H464.602L462.357 23H460.699L459.1 17.3047H459.006L457.424 23H455.754ZM466.031 23V14.082H467.742V17.5449H467.848C468.141 16.8477 468.779 16.4082 469.699 16.4082C471.135 16.4082 471.908 17.2871 471.908 18.8281V23H470.197V19.2148C470.197 18.3066 469.822 17.8262 469.014 17.8262C468.223 17.8262 467.742 18.3945 467.742 19.2676V23H466.031ZM475.324 23.0996C474.094 23.0996 473.221 22.3379 473.221 21.166V21.1543C473.221 19.9941 474.117 19.3145 475.723 19.2207L477.281 19.127V18.5938C477.281 18.0371 476.9 17.7207 476.197 17.7207C475.582 17.7207 475.189 17.9375 475.055 18.3184L475.043 18.3418H473.461L473.467 18.2891C473.602 17.1582 474.668 16.4082 476.291 16.4082C478.002 16.4082 478.969 17.2168 478.969 18.5938V23H477.281V22.1445H477.176C476.848 22.7422 476.168 23.0996 475.324 23.0996ZM474.891 21.0605C474.891 21.5527 475.307 21.8516 475.898 21.8516C476.689 21.8516 477.281 21.3301 477.281 20.6504V20.1758L475.98 20.2578C475.248 20.3047 474.891 20.5801 474.891 21.0488V21.0605ZM483.322 23.0234C481.752 23.0234 481.119 22.5137 481.119 21.2598V17.8379H480.123V16.5488H481.119V15.0078H482.848V16.5488H484.178V17.8379H482.848V20.8672C482.848 21.4473 483.094 21.7051 483.674 21.7051C483.896 21.7051 484.014 21.6934 484.178 21.6758V22.9473C483.967 22.9883 483.65 23.0234 483.322 23.0234ZM488.109 23.1348C486.357 23.1348 485.361 22.3496 485.238 21.2422L485.232 21.2188H486.914L486.926 21.2422C487.061 21.6406 487.453 21.9277 488.127 21.9277C488.783 21.9277 489.229 21.6465 489.229 21.2188V21.207C489.229 20.8613 488.971 20.6445 488.314 20.498L487.236 20.2695C486.006 20.0059 485.396 19.4023 485.396 18.4355V18.4297C485.396 17.2168 486.475 16.4082 488.086 16.4082C489.779 16.4082 490.717 17.252 490.787 18.2891V18.3125H489.199L489.193 18.2832C489.1 17.9375 488.719 17.6152 488.08 17.6152C487.488 17.6152 487.066 17.8906 487.066 18.3242V18.3301C487.066 18.6758 487.307 18.875 487.975 19.0215L489.047 19.25C490.336 19.5254 490.939 20.0645 490.939 21.0195V21.0254C490.939 22.3027 489.762 23.1348 488.109 23.1348ZM495 23L497.936 14.5449H500.016L502.957 23H501.094L500.467 20.9492H497.484L496.857 23H495ZM498.926 16.2324L497.889 19.625H500.062L499.031 16.2324H498.926ZM504.223 25.1387V16.5488H505.934V17.5449H506.039C506.373 16.8535 507.059 16.4434 507.973 16.4434C509.584 16.4434 510.592 17.709 510.592 19.7656V19.7773C510.592 21.8516 509.607 23.0996 507.973 23.0996C507.088 23.0996 506.367 22.6719 506.039 21.9688H505.934V25.1387H504.223ZM507.387 21.6816C508.289 21.6816 508.852 20.9609 508.852 19.7773V19.7656C508.852 18.582 508.295 17.8613 507.387 17.8613C506.484 17.8613 505.916 18.582 505.916 19.7656V19.7773C505.916 20.9609 506.49 21.6816 507.387 21.6816ZM511.992 25.1387V16.5488H513.703V17.5449H513.809C514.143 16.8535 514.828 16.4434 515.742 16.4434C517.354 16.4434 518.361 17.709 518.361 19.7656V19.7773C518.361 21.8516 517.377 23.0996 515.742 23.0996C514.857 23.0996 514.137 22.6719 513.809 21.9688H513.703V25.1387H511.992ZM515.156 21.6816C516.059 21.6816 516.621 20.9609 516.621 19.7773V19.7656C516.621 18.582 516.064 17.8613 515.156 17.8613C514.254 17.8613 513.686 18.582 513.686 19.7656V19.7773C513.686 20.9609 514.26 21.6816 515.156 21.6816Z" fill="#FAFAFA"/>
<defs>
<linearGradient id="paint0_linear_1_21019" x1="197.765" y1="54.4099" x2="277.803" y2="252.59" gradientUnits="userSpaceOnUse">
<stop stop-color="#C6EB22"/>
<stop offset="1" stop-color="#D9E0BA" stop-opacity="0.7"/>
</linearGradient>
<clipPath id="clip0_1_21019">
<rect x="401.038" y="4.99951" width="40" height="40" fill="white"/>
</clipPath>
</defs>
</svg>
