<svg width="70" height="60" viewBox="0 0 70 60" fill="none" xmlns="http://www.w3.org/2000/svg">
    <path
        d="M36.529 14.7459L36.6212 14.7734L36.6253 14.7688C37.0629 14.8481 37.4971 14.5861 37.6257 14.152C38.7973 10.2153 42.4884 7.4651 46.6008 7.4651C47.0877 7.4651 47.4826 7.07022 47.4826 6.58336C47.4826 6.09649 47.0877 5.70162 46.6008 5.70162C41.5467 5.70162 37.2995 9.06671 35.9358 13.6494C35.7966 14.1162 36.0625 14.6068 36.529 14.7459Z"
        fill="url(#paint0_linear_1_34624)" stroke="#F9FFF9" stroke-width="0.3" />
    <path
        d="M56.8438 42.4384H52.4534C52.0494 42.4384 51.7217 42.1107 51.7217 41.7067C51.7217 41.3027 52.0494 40.9749 52.4534 40.9749H56.8438C62.8956 40.9749 67.8197 36.0509 67.8197 29.999C67.8197 23.9471 62.8956 19.023 56.8438 19.023H56.7382C56.526 19.023 56.3242 18.9311 56.1852 18.7706C56.0462 18.6101 55.9834 18.3974 56.0138 18.1873C56.0791 17.7315 56.112 17.2737 56.112 16.8279C56.112 11.5829 51.8444 7.31531 46.5995 7.31531C44.559 7.31531 42.6131 7.95296 40.9719 9.15978C40.6112 9.42478 40.099 9.30718 39.8905 8.91047C35.2425 0.0596993 23.1023 -1.12887 16.8082 6.57053C14.1568 9.81417 13.115 14.0336 13.9498 18.146C14.0418 18.6002 13.6942 19.0236 13.2327 19.0236H12.9395C6.8876 19.0236 1.96353 23.9477 1.96353 29.9996C1.96353 36.0514 6.8876 40.9755 12.9395 40.9755H17.3298C17.7338 40.9755 18.0615 41.3032 18.0615 41.7072C18.0615 42.1113 17.7338 42.439 17.3298 42.439H12.9395C6.0805 42.439 0.5 36.8585 0.5 29.9995C0.5 23.3329 5.77155 17.8742 12.3651 17.5731C11.7457 13.3066 12.9301 9.00295 15.6751 5.64437C22.4138 -2.5996 35.328 -1.67556 40.7871 7.51707C42.5287 6.42522 44.5215 5.85244 46.5992 5.85244C52.9538 5.85244 57.9892 11.261 57.5486 17.58C64.0813 17.9463 69.2829 23.3763 69.2829 29.999C69.2829 36.8585 63.7024 42.4384 56.8434 42.4384L56.8438 42.4384Z"
        fill="url(#paint1_linear_1_34624)" />
    <path
        d="M16.35 41.2935C16.35 51.4634 24.6237 59.737 34.7935 59.737C44.9634 59.737 53.237 51.4633 53.237 41.2935C53.237 31.1235 44.9634 22.85 34.7935 22.85C24.6235 22.85 16.35 31.1237 16.35 41.2935ZM18.1138 41.2935C18.1138 32.0966 25.5964 24.6138 34.7935 24.6138C43.9904 24.6138 51.4732 32.0964 51.4732 41.2935C51.4732 50.4904 43.9904 57.9732 34.7935 57.9732C25.5966 57.9732 18.1138 50.4905 18.1138 41.2935Z"
        fill="url(#paint2_linear_1_34624)" stroke="#F9FFF9" stroke-width="0.3" />
    <path
        d="M34.4418 48.6578C34.4418 49.0364 34.7489 49.3435 35.1275 49.3435C35.5061 49.3435 35.8132 49.0368 35.8132 48.6578V34.7292C35.8132 34.3506 35.5061 34.0435 35.1275 34.0435C34.7489 34.0435 34.4418 34.3506 34.4418 34.7292V48.6578Z"
        fill="url(#paint3_linear_1_34624)" stroke="#483EA8" stroke-width="0.3" />
    <path
        d="M35.1281 35.7003L31.3274 39.5009L35.1281 35.7003ZM35.1281 35.7003L38.9289 39.501C39.0626 39.6348 39.2386 39.7018 39.4137 39.7019L35.1281 35.7003ZM30.3576 39.501C30.6254 39.7688 31.0597 39.769 31.3273 39.501L39.4138 39.7019C39.5886 39.7018 39.7647 39.6353 39.8987 39.501C40.1665 39.2331 40.1665 38.7991 39.8986 38.5313L35.613 34.2456C35.3452 33.9778 34.9108 33.9776 34.6432 34.2456C34.6432 34.2456 34.6431 34.2457 34.6431 34.2457L30.3576 38.5313C30.0897 38.7991 30.0897 39.2331 30.3576 39.501Z"
        fill="url(#paint4_linear_1_34624)" stroke="#483EA8" stroke-width="0.3" />
    <defs>
        <linearGradient id="paint0_linear_1_34624" x1="35.6287" y1="6.94927" x2="47.8175"
            y2="7.31125" gradientUnits="userSpaceOnUse">
            <stop stop-color="#DA529A" />
            <stop offset="1" stop-color="#ED7157" />
        </linearGradient>
        <linearGradient id="paint1_linear_1_34624" x1="-2.06107" y1="5.30485" x2="72.2003"
            y2="8.08648" gradientUnits="userSpaceOnUse">
            <stop stop-color="#DA529A" />
            <stop offset="1" stop-color="#ED7157" />
        </linearGradient>
        <linearGradient id="paint2_linear_1_34624" x1="15.1377" y1="27.5734" x2="54.6731"
            y2="28.4871" gradientUnits="userSpaceOnUse">
            <stop stop-color="#DA529A" />
            <stop offset="1" stop-color="#ED7157" />
        </linearGradient>
        <linearGradient id="paint3_linear_1_34624" x1="34.5519" y1="36.0685" x2="35.7103"
            y2="36.0704" gradientUnits="userSpaceOnUse">
            <stop stop-color="#DA529A" />
            <stop offset="1" stop-color="#ED7157" />
        </linearGradient>
        <linearGradient id="paint4_linear_1_34624" x1="29.9476" y1="34.8644" x2="40.3551"
            y2="35.2973" gradientUnits="userSpaceOnUse">
            <stop stop-color="#DA529A" />
            <stop offset="1" stop-color="#ED7157" />
        </linearGradient>
    </defs>
</svg>
    