<svg width="18" height="23" viewBox="0 0 18 23" fill="none" xmlns="http://www.w3.org/2000/svg">
<path d="M16.8 3.6375L13.2375 0.6C12.7875 0.1875 12.1875 0 11.5875 0H2.55C1.125 0 0 1.1625 0 2.55V20.1375C0 21.5625 1.1625 22.6875 2.55 22.6875H7.2C7.65 22.6875 8.0625 22.3125 8.0625 21.825C8.0625 21.3375 7.6875 20.9625 7.2 20.9625H2.55C2.0625 20.9625 1.6875 20.5875 1.6875 20.1V2.55C1.6875 2.0625 2.0625 1.6875 2.55 1.6875H11.5875C11.775 1.6875 12 1.7625 12.15 1.9125L15.7125 4.95C15.9 5.1 16.0125 5.3625 16.0125 5.625V20.8875C16.0125 20.9625 15.9375 21.0375 15.8625 21.0375C15.4125 21.0375 15 21.4125 15 21.9C15 22.3875 15.375 22.7625 15.8625 22.7625C16.875 22.7625 17.7 21.9375 17.7 20.925V5.5875C17.7 4.8375 17.3625 4.125 16.8 3.6375Z" fill="white"/>
<path d="M4.2375 6.225H9.225C9.675 6.225 10.0875 5.85 10.0875 5.3625C10.0875 4.875 9.7125 4.5 9.225 4.5H4.2375C3.7875 4.5 3.375 4.875 3.375 5.3625C3.375 5.85 3.7875 6.225 4.2375 6.225Z" fill="white"/>
<path d="M4.2375 10.1625H12.7875C13.2375 10.1625 13.65 9.7875 13.65 9.3C13.65 8.8125 13.275 8.4375 12.7875 8.4375H4.2375C3.7875 8.4375 3.375 8.8125 3.375 9.3C3.375 9.7875 3.7875 10.1625 4.2375 10.1625Z" fill="white"/>
<path d="M11.4754 13.0859C9.78789 13.0859 8.40039 14.4734 8.40039 16.1609C8.40039 17.0234 8.77539 17.8109 9.37539 18.3734V21.8234C9.37539 22.1234 9.52539 22.3859 9.78789 22.5359C10.0504 22.6859 10.3504 22.6859 10.6129 22.5359L11.4379 22.0484L12.2629 22.5359C12.3754 22.6109 12.5254 22.6484 12.6754 22.6484C12.8254 22.6484 12.9754 22.6109 13.0879 22.5359C13.3504 22.3859 13.5004 22.1234 13.5004 21.8234V18.3734C14.1004 17.8109 14.4754 17.0234 14.4754 16.1609C14.5129 14.4359 13.1629 13.0859 11.4754 13.0859ZM11.4754 14.7734C12.2254 14.7734 12.8629 15.3734 12.8629 16.1609C12.8629 16.9484 12.2254 17.5109 11.4754 17.5109C10.7254 17.5109 10.0879 16.9109 10.0879 16.1234C10.0879 15.3359 10.7254 14.7734 11.4754 14.7734ZM11.8504 20.3609C11.5879 20.2109 11.2879 20.2109 11.0629 20.3609V19.1609C11.2129 19.1609 11.3254 19.1984 11.4754 19.1984C11.6254 19.1984 11.7379 19.1984 11.8879 19.1609V20.3609H11.8504Z" fill="white"/>
</svg>
