<svg width="16" height="16" viewBox="0 0 16 16" fill="none" xmlns="http://www.w3.org/2000/svg">
<path d="M14.25 5.875H1.75C1.41848 5.875 1.10054 6.0067 0.866116 6.24112C0.631696 6.47554 0.5 6.79348 0.5 7.125V14.625C0.5 14.9565 0.631696 15.2745 0.866116 15.5089C1.10054 15.7433 1.41848 15.875 1.75 15.875H14.25C14.5815 15.875 14.8995 15.7433 15.1339 15.5089C15.3683 15.2745 15.5 14.9565 15.5 14.625V7.125C15.5 6.79348 15.3683 6.47554 15.1339 6.24112C14.8995 6.0067 14.5815 5.875 14.25 5.875ZM14.25 14.625H1.75V7.125H14.25V14.625ZM1.75 4C1.75 3.83424 1.81585 3.67527 1.93306 3.55806C2.05027 3.44085 2.20924 3.375 2.375 3.375H13.625C13.7908 3.375 13.9497 3.44085 14.0669 3.55806C14.1842 3.67527 14.25 3.83424 14.25 4C14.25 4.16576 14.1842 4.32473 14.0669 4.44194C13.9497 4.55915 13.7908 4.625 13.625 4.625H2.375C2.20924 4.625 2.05027 4.55915 1.93306 4.44194C1.81585 4.32473 1.75 4.16576 1.75 4ZM3 1.5C3 1.33424 3.06585 1.17527 3.18306 1.05806C3.30027 0.940848 3.45924 0.875 3.625 0.875H12.375C12.5408 0.875 12.6997 0.940848 12.8169 1.05806C12.9342 1.17527 13 1.33424 13 1.5C13 1.66576 12.9342 1.82473 12.8169 1.94194C12.6997 2.05915 12.5408 2.125 12.375 2.125H3.625C3.45924 2.125 3.30027 2.05915 3.18306 1.94194C3.06585 1.82473 3 1.66576 3 1.5Z" fill="#264966"/>
</svg>
