<svg width="64" height="44" viewBox="0 0 64 44" fill="none" xmlns="http://www.w3.org/2000/svg">
<path d="M37.625 25.125C37.0707 25.1255 36.5323 25.3099 36.0941 25.6492C35.6558 25.9885 35.3425 26.4635 35.2031 27H27.625C26.962 27 26.3261 26.7366 25.8572 26.2678C25.3884 25.7989 25.125 25.163 25.125 24.5C25.125 23.837 25.3884 23.2011 25.8572 22.7322C26.3261 22.2634 26.962 22 27.625 22H35.125C35.9538 22 36.7487 21.6708 37.3347 21.0847C37.9208 20.4987 38.25 19.7038 38.25 18.875C38.25 18.0462 37.9208 17.2513 37.3347 16.6653C36.7487 16.0792 35.9538 15.75 35.125 15.75H27.625C27.4592 15.75 27.3003 15.8158 27.1831 15.9331C27.0658 16.0503 27 16.2092 27 16.375C27 16.5408 27.0658 16.6997 27.1831 16.8169C27.3003 16.9342 27.4592 17 27.625 17H35.125C35.6223 17 36.0992 17.1975 36.4508 17.5492C36.8025 17.9008 37 18.3777 37 18.875C37 19.3723 36.8025 19.8492 36.4508 20.2008C36.0992 20.5525 35.6223 20.75 35.125 20.75H27.625C26.6304 20.75 25.6766 21.1451 24.9733 21.8483C24.2701 22.5516 23.875 23.5054 23.875 24.5C23.875 25.4946 24.2701 26.4484 24.9733 27.1517C25.6766 27.8549 26.6304 28.25 27.625 28.25H35.2031C35.32 28.7027 35.5615 29.1135 35.9001 29.4359C36.2388 29.7582 36.661 29.9791 37.1189 30.0735C37.5768 30.1679 38.052 30.132 38.4906 29.9699C38.9291 29.8078 39.3134 29.526 39.5998 29.1564C39.8862 28.7869 40.0632 28.3444 40.1108 27.8793C40.1583 27.4142 40.0745 26.9451 39.8689 26.5252C39.6632 26.1054 39.3439 25.7516 38.9473 25.5041C38.5506 25.2566 38.0925 25.1252 37.625 25.125ZM37.625 28.875C37.3778 28.875 37.1361 28.8017 36.9305 28.6643C36.725 28.527 36.5648 28.3318 36.4701 28.1034C36.3755 27.8749 36.3508 27.6236 36.399 27.3811C36.4472 27.1387 36.5663 26.9159 36.7411 26.7411C36.9159 26.5663 37.1387 26.4472 37.3811 26.399C37.6236 26.3508 37.8749 26.3755 38.1034 26.4701C38.3318 26.5648 38.527 26.725 38.6643 26.9305C38.8017 27.1361 38.875 27.3778 38.875 27.625C38.875 27.9565 38.7433 28.2745 38.5089 28.5089C38.2745 28.7433 37.9565 28.875 37.625 28.875Z" fill="white"/>
</svg>
