<svg width="190" height="60" viewBox="0 0 190 60" fill="none" xmlns="http://www.w3.org/2000/svg">
<path d="M62.9033 50.3359H57.8931V21.1735H62.9033V50.3359ZM71.9127 25.285H66.9474V21.1735H71.9127V25.285ZM71.9127 50.3359H66.9474V28.4754H71.9127V50.3359ZM80.5176 50.3359H75.5748V28.4754H80.5176V30.8119H81.4388C81.963 29.9282 82.5546 29.2617 83.2137 28.8124C83.8727 28.348 84.8088 28.1159 86.0221 28.1159C87.6846 28.1159 88.9653 28.5877 89.864 29.5313C90.7627 30.46 91.212 32.0327 91.212 34.2494V50.3359H86.2917V33.7776C86.2917 32.6243 85.5353 32.0476 84.0225 32.0476C83.3185 32.0476 82.6295 32.1899 81.9555 32.4745C81.2815 32.7591 80.8022 33.141 80.5176 33.6203V50.3359ZM102.266 50.6729C99.4799 50.6729 97.4654 50.1787 96.2222 49.1901C94.979 48.1866 94.2975 46.5315 94.1777 44.2249C94.1477 43.8055 94.1178 43.1689 94.0878 42.3151C94.0728 41.4464 94.0653 40.5103 94.0653 39.5067C94.0653 38.5032 94.0728 37.5596 94.0878 36.6759C94.1028 35.7922 94.1327 35.1182 94.1777 34.6538C94.3125 32.2873 95.009 30.6097 96.2671 29.6212C97.5253 28.6176 99.5099 28.1159 102.221 28.1159C104.887 28.1159 106.819 28.6027 108.017 29.5762C109.231 30.5498 109.89 32.1675 109.995 34.4292C110.025 34.6838 110.047 35.1481 110.062 35.8221C110.092 36.4961 110.099 37.2376 110.084 38.0464C110.084 38.8552 110.047 39.6041 109.972 40.2931H99.0306C99.0306 41.0869 99.0381 41.8658 99.053 42.6297C99.068 43.3786 99.0905 44.0975 99.1205 44.7865C99.1354 45.4606 99.3826 45.9399 99.8619 46.2244C100.356 46.509 101.15 46.6513 102.243 46.6513C103.277 46.6513 104.011 46.509 104.445 46.2244C104.88 45.9399 105.127 45.4606 105.187 44.7865C105.217 44.1874 105.217 43.2063 105.187 41.8433H109.972C110.002 41.9632 110.017 42.2927 110.017 42.8319C110.032 43.3561 110.025 43.8205 109.995 44.2249C109.89 46.5315 109.246 48.1866 108.062 49.1901C106.894 50.1787 104.962 50.6729 102.266 50.6729ZM99.0306 36.5635H105.209C105.224 35.9045 105.232 35.3054 105.232 34.7662C105.232 34.227 105.217 33.9049 105.187 33.8001C105.127 33.2159 104.872 32.7965 104.423 32.5419C103.973 32.2723 103.239 32.1375 102.221 32.1375C101.128 32.1375 100.341 32.2723 99.8619 32.5419C99.3975 32.7965 99.1504 33.2159 99.1205 33.8001C99.1055 34.2344 99.0905 34.6838 99.0755 35.1481C99.0605 35.6124 99.0456 36.0842 99.0306 36.5635ZM117.768 50.3359H112.825V28.4754H117.768V30.8119H118.644C119.169 29.9282 119.738 29.2617 120.352 28.8124C120.981 28.348 121.91 28.1159 123.138 28.1159C124.306 28.1159 125.272 28.3555 126.036 28.8348C126.815 29.2992 127.377 30.078 127.721 31.1714H128.53C129.069 30.3027 129.698 29.5762 130.417 28.9921C131.151 28.408 132.125 28.1159 133.338 28.1159C134.956 28.1159 136.191 28.5877 137.045 29.5313C137.914 30.46 138.348 32.0327 138.348 34.2494V50.3359H133.428V33.7776C133.428 32.6243 132.724 32.0476 131.316 32.0476C130.657 32.0476 130.035 32.2199 129.451 32.5644C128.867 32.8939 128.433 33.2833 128.148 33.7327V50.3359H123.228V33.7776C123.213 32.6243 122.501 32.0476 121.093 32.0476C120.404 32.0476 119.745 32.1899 119.116 32.4745C118.487 32.7591 118.038 33.141 117.768 33.6203V50.3359ZM146.616 50.6055C144.789 50.6055 143.441 50.2161 142.572 49.4372C141.703 48.6434 141.187 47.2879 141.022 45.3707C141.007 45.161 140.992 44.8989 140.977 44.5843C140.977 44.2698 140.992 44.0002 141.022 43.7755C141.142 42.2777 141.628 41.1019 142.482 40.2482C143.351 39.3944 144.864 38.6155 147.021 37.9116C147.799 37.6719 148.578 37.4697 149.357 37.305C150.136 37.1402 150.937 36.9754 151.761 36.8107V33.9798C151.761 33.3957 151.574 32.9463 151.199 32.6318C150.825 32.3023 150.128 32.1375 149.11 32.1375C148.226 32.1375 147.582 32.2723 147.178 32.5419C146.788 32.7965 146.571 33.2159 146.526 33.8001C146.511 33.9648 146.496 34.2569 146.481 34.6763C146.481 35.0807 146.481 35.4926 146.481 35.912C146.496 36.3164 146.511 36.6309 146.526 36.8556H141.718C141.703 36.7358 141.681 36.3988 141.651 35.8446C141.636 35.2904 141.643 34.8186 141.673 34.4292C141.763 32.2274 142.37 30.6247 143.493 29.6212C144.617 28.6176 146.534 28.1159 149.245 28.1159C152.061 28.1159 154 28.6776 155.064 29.8009C156.127 30.9093 156.651 32.7366 156.636 35.2829L156.614 50.3359H151.716V47.9769H150.997C150.533 48.8905 149.979 49.5571 149.335 49.9765C148.691 50.3959 147.784 50.6055 146.616 50.6055ZM148.503 46.7187C149.267 46.7187 149.919 46.5839 150.458 46.3143C150.997 46.0447 151.424 45.7002 151.739 45.2808V40.2931C151.154 40.383 150.57 40.4878 149.986 40.6076C149.417 40.7275 148.825 40.8623 148.211 41.0121C147.313 41.3116 146.706 41.701 146.391 42.1803C146.092 42.6596 145.92 43.1914 145.875 43.7755C145.83 44.2398 145.837 44.6293 145.897 44.9438C146.062 46.1271 146.931 46.7187 148.503 46.7187ZM168.364 50.6729C165.668 50.6729 163.751 50.1787 162.613 49.1901C161.489 48.1866 160.928 46.5315 160.928 44.2249V32.5419H158.816V28.4754H160.95V22.2744H165.915V28.4754H169.892V32.5419H165.848V44.8315C165.848 45.4755 166.013 45.9473 166.342 46.2469C166.672 46.5315 167.361 46.6738 168.409 46.6738C168.739 46.6738 169.038 46.6738 169.308 46.6738C169.593 46.6588 169.915 46.6438 170.274 46.6288V50.4932C170.004 50.5681 169.705 50.613 169.375 50.628C169.061 50.658 168.724 50.6729 168.364 50.6729ZM180.407 50.6729C177.621 50.6729 175.606 50.1787 174.363 49.1901C173.12 48.1866 172.438 46.5315 172.319 44.2249C172.289 43.8055 172.259 43.1689 172.229 42.3151C172.214 41.4464 172.206 40.5103 172.206 39.5067C172.206 38.5032 172.214 37.5596 172.229 36.6759C172.244 35.7922 172.274 35.1182 172.319 34.6538C172.453 32.2873 173.15 30.6097 174.408 29.6212C175.666 28.6176 177.651 28.1159 180.362 28.1159C183.028 28.1159 184.96 28.6027 186.158 29.5762C187.372 30.5498 188.031 32.1675 188.135 34.4292C188.165 34.6838 188.188 35.1481 188.203 35.8221C188.233 36.4961 188.24 37.2376 188.225 38.0464C188.225 38.8552 188.188 39.6041 188.113 40.2931H177.171C177.171 41.0869 177.179 41.8658 177.194 42.6297C177.209 43.3786 177.231 44.0975 177.261 44.7865C177.276 45.4606 177.523 45.9399 178.003 46.2244C178.497 46.509 179.291 46.6513 180.384 46.6513C181.418 46.6513 182.152 46.509 182.586 46.2244C183.02 45.9399 183.268 45.4606 183.328 44.7865C183.357 44.1874 183.357 43.2063 183.328 41.8433H188.113C188.143 41.9632 188.158 42.2927 188.158 42.8319C188.173 43.3561 188.165 43.8205 188.135 44.2249C188.031 46.5315 187.387 48.1866 186.203 49.1901C185.035 50.1787 183.103 50.6729 180.407 50.6729ZM177.171 36.5635H183.35C183.365 35.9045 183.372 35.3054 183.372 34.7662C183.372 34.227 183.357 33.9049 183.328 33.8001C183.268 33.2159 183.013 32.7965 182.564 32.5419C182.114 32.2723 181.38 32.1375 180.362 32.1375C179.268 32.1375 178.482 32.2723 178.003 32.5419C177.538 32.7965 177.291 33.2159 177.261 33.8001C177.246 34.2344 177.231 34.6838 177.216 35.1481C177.201 35.6124 177.186 36.0842 177.171 36.5635Z" fill="white"/>
<path d="M22.9883 0C26.0752 0 28.5781 2.50293 28.5781 5.58984V11.8789C28.6806 13.734 29.1841 16.811 31.2676 18.8945C32.9274 20.5543 35.1437 21.135 36.874 21.3154H44.5723C47.6592 21.3154 50.1621 23.8184 50.1621 26.9053V44.3037C50.1621 47.3906 47.6592 49.8936 44.5723 49.8936H27.1738C24.0869 49.8936 21.584 47.3906 21.584 44.3037V37.7344C21.4581 35.9192 20.9209 33.1592 18.9619 31.2002C17.0033 29.2416 14.2439 28.7042 12.4287 28.5781H5.58984C2.50293 28.5781 0 26.0752 0 22.9883V5.58887C0.00026297 2.50217 2.50309 0 5.58984 0H22.9883Z" fill="url(#paint0_linear_45754_27038)"/>
<mask id="mask0_45754_27038" style="mask-type:alpha" maskUnits="userSpaceOnUse" x="0" y="0" width="51" height="50">
<path d="M22.9883 0C26.0752 0 28.5781 2.50293 28.5781 5.58984V11.8789C28.6806 13.734 29.1841 16.811 31.2676 18.8945C32.9274 20.5543 35.1437 21.135 36.874 21.3154H44.5723C47.6592 21.3154 50.1621 23.8184 50.1621 26.9053V44.3037C50.1621 47.3906 47.6592 49.8936 44.5723 49.8936H27.1738C24.0869 49.8936 21.584 47.3906 21.584 44.3037V37.7344C21.4581 35.9192 20.9209 33.1592 18.9619 31.2002C17.0033 29.2416 14.2439 28.7042 12.4287 28.5781H5.58984C2.50293 28.5781 0 26.0752 0 22.9883V5.58887C0.00026297 2.50217 2.50309 0 5.58984 0H22.9883Z" fill="url(#paint1_linear_45754_27038)"/>
</mask>
<g mask="url(#mask0_45754_27038)">
<path d="M-1.41211 5.66195C-1.41211 2.53494 1.12283 0 4.24984 0H14.4433C17.5703 0 20.1052 2.53494 20.1052 5.66195V34.0243H7.8793C2.7478 34.0243 -1.41211 29.8644 -1.41211 24.7329V5.66195Z" fill="url(#paint2_linear_45754_27038)"/>
<path d="M28.6445 12.3856C28.6445 9.25857 31.1795 6.72363 34.3065 6.72363H44.4999C47.6269 6.72363 50.1619 9.25857 50.1619 12.3856V41.3531H37.9359C32.8044 41.3531 28.6445 37.1932 28.6445 32.0617V12.3856Z" fill="url(#paint3_linear_45754_27038)"/>
</g>
<mask id="mask1_45754_27038" style="mask-type:alpha" maskUnits="userSpaceOnUse" x="0" y="0" width="51" height="50">
<path d="M22.9883 0C26.0752 0 28.5781 2.50293 28.5781 5.58984V11.8789C28.6806 13.734 29.1841 16.811 31.2676 18.8945C32.9274 20.5543 35.1437 21.135 36.874 21.3154H44.5723C47.6592 21.3154 50.1621 23.8184 50.1621 26.9053V44.3037C50.1621 47.3906 47.6592 49.8936 44.5723 49.8936H27.1738C24.0869 49.8936 21.584 47.3906 21.584 44.3037V37.7344C21.4581 35.9192 20.9209 33.1592 18.9619 31.2002C17.0033 29.2416 14.2439 28.7042 12.4287 28.5781H5.58984C2.50293 28.5781 0 26.0752 0 22.9883V5.58887C0.00026297 2.50217 2.50309 0 5.58984 0H22.9883Z" fill="url(#paint4_linear_45754_27038)"/>
</mask>
<g mask="url(#mask1_45754_27038)">
<path d="M-1.41211 5.66195C-1.41211 2.53494 1.12283 0 4.24984 0H14.4433C17.5703 0 20.1052 2.53494 20.1052 5.66195V34.0243H7.8793C2.7478 34.0243 -1.41211 29.8644 -1.41211 24.7329V5.66195Z" fill="url(#paint5_linear_45754_27038)"/>
<path d="M28.6445 12.3856C28.6445 9.25857 31.1795 6.72363 34.3065 6.72363H44.4999C47.6269 6.72363 50.1619 9.25857 50.1619 12.3856V41.3531H37.9359C32.8044 41.3531 28.6445 37.1932 28.6445 32.0617V12.3856Z" fill="url(#paint6_linear_45754_27038)"/>
</g>
<defs>
<linearGradient id="paint0_linear_45754_27038" x1="25.0812" y1="0" x2="25.0812" y2="49.8934" gradientUnits="userSpaceOnUse">
<stop stop-color="#ADADAD"/>
<stop offset="1" stop-color="#FCFCFC"/>
</linearGradient>
<linearGradient id="paint1_linear_45754_27038" x1="25.0812" y1="0" x2="25.0812" y2="49.8934" gradientUnits="userSpaceOnUse">
<stop stop-color="#F88650"/>
<stop offset="1" stop-color="#ED197A"/>
</linearGradient>
<linearGradient id="paint2_linear_45754_27038" x1="20.1052" y1="16.407" x2="0.946326" y2="13.4459" gradientUnits="userSpaceOnUse">
<stop stop-color="white"/>
<stop offset="1" stop-color="#919191"/>
</linearGradient>
<linearGradient id="paint3_linear_45754_27038" x1="51.7084" y1="18.4909" x2="28.4274" y2="31.2183" gradientUnits="userSpaceOnUse">
<stop stop-color="white"/>
<stop offset="1" stop-color="#A7A7A7"/>
</linearGradient>
<linearGradient id="paint4_linear_45754_27038" x1="25.0812" y1="0" x2="25.0812" y2="49.8934" gradientUnits="userSpaceOnUse">
<stop stop-color="#F88650"/>
<stop offset="1" stop-color="#ED197A"/>
</linearGradient>
<linearGradient id="paint5_linear_45754_27038" x1="20.1052" y1="16.407" x2="0.946326" y2="13.4459" gradientUnits="userSpaceOnUse">
<stop stop-color="white"/>
<stop offset="1" stop-color="#919191"/>
</linearGradient>
<linearGradient id="paint6_linear_45754_27038" x1="51.7084" y1="18.4909" x2="28.4274" y2="31.2183" gradientUnits="userSpaceOnUse">
<stop stop-color="white"/>
<stop offset="1" stop-color="#A7A7A7"/>
</linearGradient>
</defs>
</svg>
