<svg width="24" height="24" viewBox="0 0 24 24" fill="none" xmlns="http://www.w3.org/2000/svg">
<rect width="24" height="24" rx="6" fill="#F5F7F9"/>
<rect x="2" y="2" width="20" height="20" rx="6" fill="#F5F7F9"/>
<path d="M12 8.25028C11.2584 8.25028 10.5333 8.47021 9.91665 8.88227C9.29996 9.29432 8.81932 9.87999 8.53549 10.5652C8.25166 11.2504 8.1774 12.0044 8.32209 12.7319C8.46679 13.4593 8.82394 14.1275 9.34839 14.6519C9.87283 15.1764 10.541 15.5335 11.2684 15.6782C11.9959 15.8229 12.7499 15.7487 13.4351 15.4648C14.1203 15.181 14.706 14.7004 15.118 14.0837C15.5301 13.467 15.75 12.742 15.75 12.0003C15.749 11.006 15.3536 10.0528 14.6505 9.34977C13.9475 8.64673 12.9943 8.25131 12 8.25028ZM12 14.5003C11.5056 14.5003 11.0222 14.3537 10.6111 14.079C10.2 13.8042 9.87956 13.4138 9.69034 12.957C9.50112 12.5002 9.45161 11.9975 9.54807 11.5126C9.64454 11.0276 9.88264 10.5821 10.2323 10.2325C10.5819 9.88288 11.0274 9.64478 11.5123 9.54832C11.9973 9.45185 12.4999 9.50136 12.9567 9.69058C13.4136 9.8798 13.804 10.2002 14.0787 10.6114C14.3534 11.0225 14.5 11.5058 14.5 12.0003C14.5 12.6633 14.2366 13.2992 13.7678 13.768C13.299 14.2369 12.6631 14.5003 12 14.5003ZM18.875 12.169C18.8782 12.0565 18.8782 11.944 18.875 11.8315L20.0407 10.3753C20.1018 10.2988 20.1441 10.2091 20.1642 10.1133C20.1842 10.0175 20.1816 9.91829 20.1563 9.82372C19.9652 9.10544 19.6794 8.41579 19.3063 7.77294C19.2574 7.68881 19.1896 7.61725 19.1082 7.56394C19.0269 7.51064 18.9342 7.47707 18.8375 7.4659L16.9844 7.25965C16.9073 7.1784 16.8292 7.10028 16.75 7.02528L16.5313 5.16747C16.52 5.07076 16.4863 4.97801 16.4329 4.89663C16.3795 4.81525 16.3077 4.74748 16.2235 4.69872C15.5804 4.32633 14.8908 4.04078 14.1727 3.8495C14.0781 3.82434 13.9788 3.82177 13.883 3.84199C13.7872 3.86221 13.6975 3.90465 13.6211 3.9659L12.1688 5.12528C12.0563 5.12528 11.9438 5.12528 11.8313 5.12528L10.375 3.962C10.2986 3.90088 10.2088 3.85858 10.113 3.83849C10.0172 3.81841 9.91804 3.82111 9.82347 3.84637C9.10531 4.0378 8.4157 4.32363 7.77269 4.69637C7.68857 4.74522 7.617 4.81303 7.5637 4.89441C7.5104 4.97579 7.47683 5.06849 7.46566 5.16512L7.25941 7.02137C7.17816 7.09898 7.10004 7.1771 7.02504 7.25575L5.16722 7.46903C5.07051 7.48028 4.97777 7.51397 4.89639 7.56741C4.815 7.62085 4.74723 7.69257 4.69847 7.77684C4.32609 8.41994 4.04053 9.10953 3.84925 9.82762C3.8241 9.92225 3.82152 10.0215 3.84174 10.1173C3.86196 10.2131 3.90441 10.3028 3.96566 10.3792L5.12504 11.8315C5.12504 11.944 5.12504 12.0565 5.12504 12.169L3.96175 13.6253C3.90064 13.7017 3.85833 13.7915 3.83825 13.8873C3.81816 13.9831 3.82086 14.0823 3.84613 14.1768C4.03721 14.8951 4.32306 15.5848 4.69613 16.2276C4.74498 16.3118 4.81279 16.3833 4.89417 16.4366C4.97555 16.4899 5.06824 16.5235 5.16488 16.5347L7.018 16.7409C7.09561 16.8222 7.17373 16.9003 7.25238 16.9753L7.46879 18.8331C7.48004 18.9298 7.51373 19.0225 7.56717 19.1039C7.62061 19.1853 7.69233 19.2531 7.7766 19.3018C8.4197 19.6742 9.10929 19.9598 9.82738 20.1511C9.92201 20.1762 10.0212 20.1788 10.117 20.1586C10.2128 20.1384 10.3026 20.0959 10.3789 20.0347L11.8313 18.8753C11.9438 18.8784 12.0563 18.8784 12.1688 18.8753L13.625 20.0409C13.7015 20.102 13.7912 20.1443 13.887 20.1644C13.9828 20.1845 14.082 20.1818 14.1766 20.1565C14.8949 19.9654 15.5845 19.6796 16.2274 19.3065C16.3115 19.2577 16.3831 19.1899 16.4364 19.1085C16.4897 19.0271 16.5232 18.9344 16.5344 18.8378L16.7407 16.9847C16.8219 16.9076 16.9 16.8294 16.975 16.7503L18.8328 16.5315C18.9296 16.5203 19.0223 16.4866 19.1037 16.4331C19.1851 16.3797 19.2528 16.308 19.3016 16.2237C19.674 15.5806 19.9595 14.891 20.1508 14.1729C20.176 14.0783 20.1785 13.9791 20.1583 13.8833C20.1381 13.7875 20.0957 13.6978 20.0344 13.6214L18.875 12.169ZM17.6172 11.6612C17.6305 11.8871 17.6305 12.1135 17.6172 12.3393C17.6079 12.494 17.6564 12.6465 17.7532 12.7675L18.8618 14.1526C18.7345 14.5569 18.5717 14.9491 18.375 15.3245L16.6094 15.5245C16.4556 15.5416 16.3137 15.6151 16.211 15.7307C16.0606 15.8999 15.9004 16.0601 15.7313 16.2104C15.6156 16.3131 15.5421 16.4551 15.525 16.6089L15.3289 18.3729C14.9535 18.5697 14.5614 18.7325 14.1571 18.8597L12.7711 17.7511C12.6602 17.6624 12.5225 17.6142 12.3805 17.6143H12.343C12.1172 17.6276 11.8907 17.6276 11.6649 17.6143C11.5103 17.605 11.3577 17.6535 11.2368 17.7503L9.84769 18.8597C9.44342 18.7324 9.05125 18.5696 8.67582 18.3729L8.47582 16.6097C8.45875 16.4559 8.38526 16.3139 8.26957 16.2112C8.10043 16.0608 7.94026 15.9007 7.78988 15.7315C7.68717 15.6158 7.5452 15.5423 7.39144 15.5253L5.62738 15.3284C5.43065 14.953 5.26777 14.5608 5.14066 14.1565L6.24925 12.7706C6.34606 12.6497 6.3945 12.4971 6.38519 12.3425C6.37191 12.1166 6.37191 11.8902 6.38519 11.6643C6.3945 11.5097 6.34606 11.3571 6.24925 11.2362L5.14066 9.84794C5.26787 9.44367 5.43075 9.0515 5.62738 8.67606L7.39066 8.47606C7.54442 8.45899 7.68639 8.3855 7.7891 8.26981C7.93948 8.10068 8.09965 7.94051 8.26879 7.79012C8.38494 7.68735 8.45873 7.54506 8.47582 7.3909L8.67191 5.62762C9.0473 5.4309 9.43948 5.26801 9.84379 5.1409L11.2297 6.2495C11.3507 6.3463 11.5032 6.39474 11.6578 6.38544C11.8837 6.37216 12.1101 6.37216 12.336 6.38544C12.4906 6.39474 12.6432 6.3463 12.7641 6.2495L14.1524 5.1409C14.5567 5.26811 14.9488 5.43099 15.3243 5.62762L15.5243 7.3909C15.5413 7.54467 15.6148 7.68663 15.7305 7.78934C15.8996 7.93973 16.0598 8.0999 16.2102 8.26903C16.3129 8.38472 16.4549 8.45821 16.6086 8.47528L18.3727 8.67137C18.5694 9.04677 18.7323 9.43894 18.8594 9.84325L17.7508 11.2292C17.6531 11.3511 17.6046 11.5053 17.6149 11.6612H17.6172Z" fill="#264966"/>
</svg>
