<svg width="18" height="17" viewBox="0 0 18 17" fill="none"
xmlns="http://www.w3.org/2000/svg">
<path
    d="M15.875 4.25H13.375V1.75C13.375 1.41848 13.2433 1.10054 13.0089 0.866116C12.7745 0.631696 12.4565 0.5 12.125 0.5H2.125C1.79348 0.5 1.47554 0.631696 1.24112 0.866116C1.0067 1.10054 0.875 1.41848 0.875 1.75V11.75C0.875367 11.8676 0.908896 11.9827 0.971736 12.0821C1.03458 12.1814 1.12418 12.2611 1.23025 12.3118C1.33631 12.3626 1.45455 12.3824 1.57136 12.369C1.68818 12.3555 1.79884 12.3094 1.89062 12.2359L4.625 10.0312V12.375C4.625 12.7065 4.7567 13.0245 4.99112 13.2589C5.22554 13.4933 5.54348 13.625 5.875 13.625H13.1867L16.1094 15.9859C16.22 16.0754 16.3578 16.1244 16.5 16.125C16.6658 16.125 16.8247 16.0592 16.9419 15.9419C17.0592 15.8247 17.125 15.6658 17.125 15.5V5.5C17.125 5.16848 16.9933 4.85054 16.7589 4.61612C16.5245 4.3817 16.2065 4.25 15.875 4.25ZM4.19922 8.76406L2.125 10.4414V1.75H12.125V8.625H4.59219C4.44914 8.62502 4.31044 8.6741 4.19922 8.76406ZM15.875 14.1914L13.8008 12.5141C13.6902 12.4246 13.5524 12.3756 13.4102 12.375H5.875V9.875H12.125C12.4565 9.875 12.7745 9.7433 13.0089 9.50888C13.2433 9.27446 13.375 8.95652 13.375 8.625V5.5H15.875V14.1914Z"
    fill="#64707D" />
</svg>
