<svg width="16" height="16" viewBox="0 0 16 16" fill="none"
xmlns="http://www.w3.org/2000/svg">
<path
    d="M8.00007 0C5.14975 0 2.64931 1.49191 1.23242 3.736C1.71758 4.08622 2.31135 4.29511 2.95562 4.29511H8.71544C11.7519 4.29511 14.4262 5.84249 15.9951 8.19111C15.9967 8.12729 16.0001 8.064 16.0001 8C16.0001 3.58169 12.4184 0 8.00007 0Z"
    fill="#7360F2" />
<path
    d="M16.0005 7.9998C16.0005 7.78522 15.9895 7.57331 15.973 7.36282C14.4009 4.93047 11.7374 3.71269 8.7159 3.71269H2.95607C2.39447 3.71269 1.87145 3.62487 1.4247 3.44531C0.602652 4.6302 0.0911854 6.04673 0.0117188 7.57829C1.61581 9.55642 4.06399 10.8222 6.80923 10.8222H6.9415C8.54825 10.8222 9.27056 11.523 9.3111 13.12C9.31181 13.0946 9.31501 13.0698 9.31501 13.0442C9.31501 14.5406 8.68994 15.774 7.32887 15.9698C7.55056 15.9881 7.77403 15.9998 8.00052 15.9998C12.4188 15.9998 16.0005 12.4181 16.0005 7.9998Z"
    fill="#6E5DE3" />
<path
    d="M7.33689 15.9702C8.75698 15.7797 9.85582 14.5832 9.89298 13.1198C9.85244 11.5228 8.54791 10.2398 6.94115 10.2398H6.80889C4.0896 10.2398 1.66276 8.99674 0.0581333 7.05078C0.0211556 7.36225 0 7.67851 0 7.99976C0 12.1944 3.22916 15.6328 7.33689 15.9702Z"
    fill="#6756D4" />
<path
    d="M11.2635 4.42268C11.0425 4.21877 10.1499 3.57077 8.16159 3.56206C8.16159 3.56206 5.81687 3.42055 4.67394 4.46908C4.03767 5.10552 3.81385 6.03672 3.79039 7.19121C3.76674 8.3457 3.73616 10.5093 5.82167 11.0959H5.82363L5.82239 11.991C5.82239 11.991 5.80905 12.3533 6.04763 12.4273C6.33634 12.5169 6.50576 12.2415 6.78132 11.9445C6.93261 11.7814 7.1415 11.542 7.29883 11.359C8.72514 11.479 9.82221 11.2047 9.94665 11.1642C10.2347 11.0709 11.8643 10.862 12.1292 8.69859C12.4028 6.4689 11.997 5.05841 11.2635 4.42268ZM10.0647 9.26783C10.0647 9.26872 10.064 9.27032 10.064 9.27121C9.97207 9.4305 9.85563 9.57397 9.71856 9.69646C9.71696 9.69717 9.71696 9.69806 9.71554 9.69877C9.59661 9.79815 9.47963 9.85468 9.36478 9.86837C9.3479 9.87139 9.33065 9.87246 9.31358 9.87157C9.26292 9.8721 9.21261 9.86428 9.16443 9.84863L9.1607 9.84312C8.98381 9.79317 8.68852 9.66837 8.19661 9.39708C7.91198 9.24188 7.64105 9.06303 7.38665 8.86215C7.25919 8.76152 7.13759 8.65361 7.02239 8.53912L7.01012 8.52686L6.99785 8.51459L6.98558 8.50232C6.9815 8.49841 6.97741 8.49415 6.97332 8.49006C6.85883 8.37486 6.75092 8.25326 6.6503 8.12579C6.44941 7.87139 6.27039 7.60064 6.11536 7.31601C5.84407 6.8241 5.71927 6.52899 5.66932 6.35192L5.66381 6.34819C5.64816 6.30001 5.64052 6.2497 5.64105 6.19903C5.64016 6.18197 5.64123 6.16472 5.64407 6.14784C5.65847 6.03317 5.71501 5.91619 5.81385 5.7969C5.81456 5.79548 5.81545 5.79548 5.81616 5.79388C5.93865 5.65681 6.0823 5.54037 6.24141 5.44864C6.24212 5.44864 6.24372 5.44792 6.24479 5.44792C6.40496 5.36455 6.55661 5.39281 6.6599 5.51459C6.66061 5.5153 6.87483 5.77255 6.96674 5.89806C7.06132 6.03121 7.14932 6.16881 7.23003 6.31086C7.33545 6.49984 7.26932 6.69343 7.16585 6.77326L6.95714 6.93912C6.85172 7.02428 6.86576 7.18232 6.86576 7.18232C6.86576 7.18232 7.17492 8.35263 8.3303 8.64757C8.3303 8.64757 8.48834 8.6609 8.5735 8.55601L8.73936 8.3473C8.81936 8.24383 9.01261 8.1777 9.20176 8.28312C9.34345 8.36383 9.48105 8.45184 9.61403 8.54641C9.73954 8.63868 9.99661 8.85326 9.99732 8.85326C10.1198 8.95583 10.1481 9.10766 10.0647 9.26783ZM9.10896 6.38037C8.87501 6.12508 8.55447 5.98588 8.12923 5.95477C8.06736 5.95015 8.02079 5.89628 8.02541 5.83441C8.03003 5.77255 8.08407 5.72579 8.14576 5.73059C8.62434 5.76561 9.00425 5.93326 9.27501 6.22872C9.5463 6.52526 9.6791 6.89806 9.6695 7.33681C9.66825 7.39797 9.61812 7.44686 9.55714 7.44686C9.55643 7.44686 9.55554 7.44686 9.55465 7.44686C9.49261 7.44543 9.44336 7.39406 9.44461 7.33201C9.45296 6.9473 9.34327 6.63619 9.10896 6.38037ZM9.09243 7.13521C9.09545 7.19726 9.04763 7.25006 8.98558 7.25308C8.98363 7.25326 8.98185 7.25326 8.9799 7.25326C8.92034 7.25326 8.87074 7.2065 8.86772 7.14641C8.8487 6.76437 8.66914 6.57735 8.30221 6.55832C8.24016 6.55512 8.19252 6.50215 8.19572 6.44028C8.19892 6.37824 8.25154 6.33041 8.31376 6.33379C8.79839 6.35903 9.06772 6.63601 9.09243 7.13521ZM10.1486 7.67761C10.1483 7.67761 10.1481 7.67761 10.1477 7.67761C10.086 7.67761 10.0357 7.62783 10.0354 7.56597C10.0302 6.88757 9.82665 6.34766 9.43021 5.96117C9.03305 5.57397 8.53118 5.37557 7.93865 5.37148C7.87661 5.37112 7.82647 5.32028 7.82701 5.25823C7.82736 5.19637 7.87767 5.14659 7.93936 5.14659C7.93972 5.14659 7.94007 5.14659 7.94007 5.14659C8.59287 5.15121 9.14701 5.37095 9.58701 5.8001C10.0281 6.22997 10.2544 6.82357 10.2601 7.56419C10.2604 7.62641 10.2105 7.67708 10.1486 7.67761Z"
    fill="white" />
</svg>