<svg width="16" height="16" viewBox="0 0 16 16" fill="none"
xmlns="http://www.w3.org/2000/svg">
<path
    d="M8.002 0H7.998C3.587 0 0 3.588 0 8C0 9.75 0.564 11.372 1.523 12.689L0.526 15.661L3.601 14.678C4.866 15.516 6.375 16 8.002 16C12.413 16 16 12.411 16 8C16 3.589 12.413 0 8.002 0Z"
    fill="#4CAF50" />
<path
    d="M12.4657 11.0813C12.2771 11.6017 11.5281 12.0332 10.9307 12.1592C10.5221 12.2442 9.98823 12.312 8.1912 11.5845C5.89261 10.6546 4.41236 8.3737 4.29699 8.22572C4.18651 8.07773 3.36816 7.01798 3.36816 5.92194C3.36816 4.82591 3.93817 4.29221 4.16793 4.06307C4.35663 3.87499 4.66852 3.78906 4.9677 3.78906C5.06449 3.78906 5.15151 3.79384 5.22972 3.79766C5.45948 3.8072 5.57485 3.82057 5.7264 4.17478C5.9151 4.61873 6.37462 5.71476 6.42937 5.82742C6.4851 5.94008 6.54083 6.09284 6.46261 6.24082C6.38929 6.39358 6.32476 6.46137 6.20939 6.59121C6.09402 6.72105 5.98451 6.82035 5.86914 6.95974C5.76355 7.08099 5.64427 7.21083 5.77724 7.4352C5.91021 7.65479 6.36973 8.38707 7.04631 8.97518C7.9194 9.7342 8.62726 9.9767 8.88049 10.0798C9.06919 10.1562 9.29406 10.1381 9.43192 9.99484C9.60693 9.81058 9.823 9.50506 10.043 9.20432C10.1994 8.98855 10.3969 8.96182 10.6042 9.0382C10.8154 9.1098 11.9329 9.64923 12.1627 9.76093C12.3924 9.87359 12.544 9.92706 12.5997 10.0216C12.6544 10.1161 12.6544 10.56 12.4657 11.0813Z"
    fill="#FAFAFA" />
</svg>